<svg width="512" height="512" viewBox="0 0 512 512" fill="none" xmlns="http://www.w3.org/2000/svg">
<g clip-path="url(#clip0_250_23)">
<path d="M365.92 321.154C358.578 321.154 351.792 324.49 347.301 330.31C330.952 352.575 358.389 379.699 380.49 363.091C380.512 363.073 380.606 362.998 380.628 362.98L380.8 362.839C397.794 348.97 387.861 321.161 365.92 321.154V321.154ZM371.294 351.236L371.168 351.34C363.251 357.347 353.251 347.44 359.18 339.471C360.807 337.363 363.264 336.154 365.921 336.154C373.838 336.122 377.452 346.264 371.294 351.236Z" fill="#FFE733"/>
<path d="M146.08 321.154C124.132 321.163 114.215 348.973 131.193 362.833L131.439 363.034C131.458 363.05 131.548 363.122 131.568 363.137C153.727 379.637 181.008 352.576 164.697 330.307C160.207 324.49 153.422 321.154 146.08 321.154ZM146.08 353.15C144.155 353.15 142.34 352.524 140.885 351.383L140.699 351.23C134.549 346.258 138.166 336.121 146.08 336.154C148.737 336.154 151.194 337.363 152.818 339.468C157.131 344.904 153.024 353.243 146.08 353.15Z" fill="#FFE733"/>
<path d="M453.829 52.777L359.24 4.04902C350.62 -0.390975 340.788 -1.21098 331.553 1.74502C322.318 4.70002 314.787 11.073 310.346 19.693L303.874 32.258C302.991 33.971 302.422 35.79 302.172 37.645C300.471 28.476 292.413 21.512 282.759 21.512H229.244C219.59 21.512 211.532 28.477 209.831 37.645C209.581 35.79 209.012 33.972 208.13 32.259L201.657 19.694C197.217 11.075 189.685 4.70102 180.45 1.74602C171.215 -1.20898 161.383 -0.390975 152.763 4.05002L96.3157 33.126C87.6447 37.979 94.2087 50.704 103.186 46.46L159.631 17.383C164.688 14.777 170.457 14.298 175.876 16.031C181.294 17.765 185.713 21.505 188.319 26.562L194.792 39.128C195.038 39.605 194.981 40.041 194.891 40.322C194.801 40.604 194.593 40.992 194.117 41.238L159.112 59.27C159.111 59.271 159.11 59.271 159.109 59.272L75.7777 102.2C75.7777 102.2 75.7767 102.2 75.7767 102.201L64.4447 108.039C63.9687 108.284 63.5317 108.228 63.2507 108.138C62.9687 108.048 62.5807 107.84 62.3347 107.364L55.8607 94.798C50.4827 84.358 54.6007 71.49 65.0407 66.112L74.7397 61.116C78.4217 59.219 79.8697 54.697 77.9727 51.014C76.0747 47.332 71.5537 45.883 67.8697 47.782L58.1717 52.777C40.3787 61.943 33.3597 83.874 42.5257 101.666L48.9997 114.232C51.0267 118.165 54.4637 121.075 58.6777 122.423C62.8747 123.767 67.3727 123.404 71.3147 121.371L71.6907 121.177V203.166C71.6907 240.591 98.6647 271.835 134.194 278.48H88.2477C69.2227 278.48 53.7447 293.957 53.7447 312.98V423.747C53.7447 442.77 69.2227 458.247 88.2477 458.247H140.699V476.506C140.699 496.077 156.622 511.999 176.194 511.999H187.919C197.85 511.655 197.843 497.34 187.919 496.999H176.194C164.893 496.999 155.699 487.806 155.699 476.506V420.064L231.797 482.516C247.425 494.684 265.585 494.303 280.933 481.868L356.299 420.05V476.506C356.299 487.806 347.105 496.999 335.804 496.999H223.204C213.273 497.343 213.28 511.658 223.204 511.999H335.806C355.378 511.999 371.301 496.077 371.301 476.506V458.247H423.752C442.777 458.247 458.255 442.77 458.255 423.747V312.981C458.255 293.958 442.777 278.481 423.752 278.481H377.873C389.043 276.398 399.587 271.848 408.91 265.022C412.252 262.575 412.978 257.882 410.531 254.54C408.084 251.197 403.39 250.473 400.049 252.919C389.446 260.682 376.873 264.784 363.686 264.784H304.042C304.029 264.784 304.016 264.784 304.003 264.784H207.999C207.986 264.784 207.973 264.784 207.96 264.784H148.316C115.495 264.784 88.5847 238.994 86.7887 206.616H151.199C181.057 205.377 181.034 162.845 151.199 161.617H86.6917V152.789H151.198C181.056 151.55 181.033 109.018 151.198 107.79H97.6767L164.34 73.45H209.498V183.764C209.498 194.65 218.355 203.507 229.243 203.507H282.758C293.645 203.507 302.503 194.65 302.503 183.764V73.45H347.661L414.324 107.791H360.803C330.945 109.03 330.968 151.562 360.803 152.79H425.309V161.618H360.803C330.945 162.857 330.968 205.389 360.803 206.617H425.216C424.745 215.32 422.484 223.64 418.478 231.397C416.577 235.077 418.02 239.601 421.7 241.502C425.304 243.386 429.897 241.996 431.805 238.28C437.368 227.509 440.309 215.367 440.309 203.167V121.178L440.685 121.372C444.627 123.405 449.124 123.768 453.322 122.424C457.536 121.075 460.973 118.166 463.001 114.232L469.475 101.666C478.64 83.874 471.621 61.942 453.829 52.777V52.777ZM296.502 279.785V291.991C296.502 293.531 295.249 294.784 293.708 294.784H218.291C216.75 294.784 215.497 293.531 215.497 291.991V279.785H296.502ZM218.292 309.784H293.709C303.521 309.784 311.503 301.802 311.503 291.991V279.785H356.3V293.335C343.816 295.641 332.608 302.417 324.634 312.701L256 396.357L187.363 312.698C179.391 302.417 168.184 295.642 155.7 293.336V279.786H200.498V291.992C200.497 301.802 208.48 309.784 218.292 309.784V309.784ZM389.468 373.445C367.857 391.489 329.633 379.23 328.718 344.646C328.718 336.353 331.388 328.507 336.436 321.959C343.549 312.742 354.295 307.457 365.92 307.457C400.668 307.471 416.369 351.502 389.468 373.445ZM146.08 381.846C118.891 381.846 108.878 355.85 108.878 344.647C108.913 309.373 154.072 294.002 175.561 321.957C194.38 346.076 176.685 381.993 146.08 381.846V381.846ZM140.699 443.249H88.2477C78.4877 443.249 70.3787 436.042 68.9637 426.671H75.1707C85.1017 426.327 85.0947 412.012 75.1707 411.671H68.7447V393.532H75.1707C85.1017 393.188 85.0947 378.873 75.1707 378.532H68.7447V360.393H75.1707C85.1017 360.049 85.0947 345.734 75.1707 345.393H68.7447V327.254H75.1707C85.1017 326.91 85.0947 312.595 75.1707 312.254H68.7577C69.1407 301.836 77.7367 293.48 88.2467 293.48H135.766C93.1757 301.896 78.8437 357.239 113.024 385.047L140.698 407.754V443.249H140.699ZM155.7 395.957C178.386 391.714 195.953 372.75 198.068 349.395L246.299 408.181L228.89 429.401C222.943 435.791 219.49 443.983 219.052 452.673L155.7 400.668V395.957ZM234.004 454.564C234.004 448.929 236.128 443.577 239.993 439.488C253.481 425.051 278.033 434.803 277.996 454.565C276.789 483.741 235.208 483.724 234.004 454.564V454.564ZM292.949 452.673C292.499 443.789 288.9 435.722 283.248 429.568L265.701 408.181L313.932 349.395C316.048 372.75 333.614 391.714 356.3 395.957V400.668L292.949 452.673ZM443.241 312.255H436.814C426.883 312.599 426.89 326.914 436.814 327.255H443.255V345.394H436.814C426.883 345.738 426.89 360.053 436.814 360.394H443.255V378.533H436.814C426.883 378.877 426.89 393.192 436.814 393.533H443.255V411.672H436.814C426.883 412.016 426.89 426.331 436.814 426.672H443.036C441.621 436.043 433.513 443.25 423.752 443.25H371.301V407.748L398.971 385.052C433.169 357.23 418.804 301.889 376.233 293.482H423.752C434.262 293.481 442.858 301.838 443.241 312.255V312.255ZM86.6947 176.618H151.198C161.127 176.971 161.12 191.268 151.198 191.618H86.6947V176.618ZM158.699 130.291C158.699 134.427 155.335 137.791 151.199 137.791H86.6947V122.791H151.198C155.334 122.791 158.699 126.155 158.699 130.291ZM193.457 58.45L200.987 54.571C204.921 52.544 207.83 49.107 209.178 44.893C209.298 44.518 209.404 44.141 209.497 43.762V58.45H193.457ZM287.501 183.764C287.501 186.38 285.373 188.508 282.757 188.508H229.242C226.626 188.508 224.498 186.38 224.498 183.764V41.255C224.498 38.639 226.626 36.511 229.242 36.511H282.757C285.373 36.511 287.501 38.639 287.501 41.255V183.764ZM302.502 58.45V43.762C302.595 44.141 302.701 44.518 302.821 44.893C304.169 49.107 307.079 52.544 311.012 54.571L318.542 58.45H302.502ZM425.305 137.791H360.802C350.873 137.438 350.88 123.141 360.802 122.791H425.305V137.791ZM353.301 184.118C353.301 179.982 356.665 176.618 360.801 176.618H425.304V191.618H360.801C356.666 191.618 353.301 188.253 353.301 184.118ZM456.139 94.797L449.666 107.363C449.42 107.84 449.032 108.048 448.75 108.138C448.469 108.228 448.032 108.284 447.556 108.039L436.224 102.201C436.224 102.201 436.223 102.201 436.223 102.2L352.892 59.272C352.891 59.271 352.89 59.271 352.889 59.27L317.884 41.237C317.407 40.991 317.199 40.604 317.11 40.321C317.02 40.039 316.964 39.603 317.21 39.126L323.683 26.561C326.289 21.504 330.708 17.764 336.126 16.03C341.544 14.297 347.314 14.777 352.371 17.382L446.961 66.11C457.399 71.489 461.517 84.357 456.139 94.797V94.797Z" fill="#FFE733"/>
</g>
<defs>
<clipPath id="clip0_250_23">
<rect width="512" height="512" fill="white"/>
</clipPath>
</defs>
</svg>
