<svg xmlns="http://www.w3.org/2000/svg" version="1.1" xmlns:xlink="http://www.w3.org/1999/xlink" xmlns:svgjs="http://svgjs.com/svgjs" width="512" height="512" x="0" y="0" viewBox="0 0 464 464" style="enable-background:new 0 0 512 512" xml:space="preserve" class="hovered-paths"><g transform="matrix(-1,0,0,1,464,25)"><path xmlns="http://www.w3.org/2000/svg" d="m416 272h16v16h-16zm0 0" fill="#000000" data-original="#000000" class="hovered-path"></path><path xmlns="http://www.w3.org/2000/svg" d="m456 0h-201.054688c-46.960937 0-92.058593 22.246094-120.625 59.511719l-102.945312 134.289062c-20.230469 26.382813-31.375 59.222657-31.375 92.472657v49.726562h464v-328c0-4.40625-3.585938-8-8-8zm-8 288c0 8.824219-7.175781 16-16 16h-64c-8.824219 0-16-7.175781-16-16v-16c0-8.824219 7.175781-16 16-16h64c8.824219 0 16 7.175781 16 16zm0-48h-368c-13.230469 0-24-10.769531-24-24v-32c0-12.6875 9.929688-23 22.398438-23.839844l68.601562-90.375c25.558594-33.679687 66.0625-53.785156 108.335938-53.785156h192.664062zm0 0" fill="#000000" data-original="#000000" class="hovered-path"></path><path xmlns="http://www.w3.org/2000/svg" d="m0 368h32v16h-32v24c0 4.414062 3.585938 8 8 8h448c4.414062 0 8-3.585938 8-8v-24h-416v-16h416v-16h-464zm0 0" fill="#000000" data-original="#000000" class="hovered-path"></path><path xmlns="http://www.w3.org/2000/svg" d="m368 272h32v16h-32zm0 0" fill="#000000" data-original="#000000" class="hovered-path"></path><path xmlns="http://www.w3.org/2000/svg" d="m72 184v32c0 4.414062 3.585938 8 8 8h48c13.230469 0 24-10.769531 24-24v-24h-72c-4.414062 0-8 3.59375-8 8zm0 0" fill="#000000" data-original="#000000" class="hovered-path"></path><path xmlns="http://www.w3.org/2000/svg" d="m159.753906 79.457031-61.136718 80.542969h69.382812v40c0 9.039062-3.128906 17.296875-8.207031 24h272.207031v-192h-176.664062c-37.304688 0-73.039063 17.742188-95.582032 47.457031zm0 0" fill="#000000" data-original="#000000" class="hovered-path"></path></g></svg>