<svg xmlns="http://www.w3.org/2000/svg" version="1.1" xmlns:xlink="http://www.w3.org/1999/xlink" xmlns:svgjs="http://svgjs.com/svgjs" width="512" height="512" x="0" y="0" viewBox="0 0 511.989 511.989" style="enable-background:new 0 0 512 512" xml:space="preserve" class=""><g><path xmlns="http://www.w3.org/2000/svg" d="m205.325 227.868-45.748-45.748c-12.634 16.468-21.152 36.249-24 57.796h64.748c1.219-4.233 2.901-8.27 5-12.048z" fill="#000000" data-original="#000000" class=""></path><path xmlns="http://www.w3.org/2000/svg" d="m200.326 271.916h-64.748c2.848 21.547 11.366 41.328 24 57.796l45.748-45.748c-2.1-3.777-3.782-7.814-5-12.048z" fill="#000000" data-original="#000000" class=""></path><path xmlns="http://www.w3.org/2000/svg" d="m274.319 274.235c16.297-16.297 4.725-44.258-18.318-44.258-23.046 0-34.615 27.962-18.318 44.258 10.166 10.167 26.469 10.167 36.636 0z" fill="#000000" data-original="#000000" class=""></path><path xmlns="http://www.w3.org/2000/svg" d="m240 200.242v-64.748c-21.547 2.848-41.328 11.366-57.796 24l45.748 45.748c3.778-2.1 7.815-3.782 12.048-5z" fill="#000000" data-original="#000000" class=""></path><path xmlns="http://www.w3.org/2000/svg" d="m329.796 159.494c-16.468-12.634-36.249-21.152-57.796-24v64.748c4.233 1.219 8.27 2.9 12.048 5z" fill="#000000" data-original="#000000" class=""></path><path xmlns="http://www.w3.org/2000/svg" d="m182.204 352.339c16.468 12.634 36.249 21.152 57.796 24v-64.748c-4.233-1.219-8.27-2.9-12.048-5z" fill="#000000" data-original="#000000" class=""></path><path xmlns="http://www.w3.org/2000/svg" d="m306.676 227.868c2.099 3.778 3.781 7.815 5 12.048h64.748c-2.848-21.547-11.366-41.328-24-57.796z" fill="#000000" data-original="#000000" class=""></path><path xmlns="http://www.w3.org/2000/svg" d="m272 311.591v64.748c21.547-2.848 41.328-11.366 57.796-24l-45.748-45.748c-3.777 2.1-7.814 3.782-12.048 5z" fill="#000000" data-original="#000000" class=""></path><path xmlns="http://www.w3.org/2000/svg" d="m306.676 283.965 45.748 45.748c12.634-16.468 21.152-36.249 24-57.796h-64.748c-1.219 4.233-2.901 8.27-5 12.048z" fill="#000000" data-original="#000000" class=""></path><path xmlns="http://www.w3.org/2000/svg" d="m429.661 202.583c-8.004-3.743-11.458-13.267-7.715-21.271 3.742-8.005 13.263-11.461 21.271-7.715l63.351 29.628c-9.837-47.079-32.589-89.411-64.41-123.105l-87.408 23.315c-8.557 2.28-17.311-2.815-19.584-11.336-2.277-8.538 2.799-17.306 11.336-19.584l67.592-18.029c-36.218-28.459-80.331-47.339-128.562-52.865-.685 1.087 4.275-6.018-51.899 74.012-3.113 4.436-8.072 6.809-13.109 6.809-12.779 0-20.576-14.516-13.082-25.193l40.135-57.18c-48.832 1.576-94.181 16.794-132.378 41.976l7.783 90.145c.761 8.804-5.761 16.557-14.564 17.316-8.76.768-16.554-5.73-17.316-14.564l-6.016-69.673c-34.661 31.087-60.774 71.498-74.427 117.311l63.913 64.058c6.241 6.256 6.23 16.386-.025 22.627-6.246 6.232-16.377 6.24-22.627-.025l-49.37-49.483c-6.412 45.436-.882 93.146 18.354 137.682l90.15 7.99c8.803.78 15.306 8.548 14.525 17.35-.737 8.321-7.722 14.589-15.919 14.589-1.055 0 3.385.363-71.114-6.239 24.852 39.913 60.382 72.464 102.619 93.675l74.193-51.826c7.243-5.058 17.219-3.29 22.279 3.955 5.06 7.244 3.289 17.219-3.955 22.279l-57.359 40.067c45.709 14.934 94.041 16.349 138.839 5.768l23.517-87.369c2.297-8.533 11.078-13.591 19.608-11.291 8.533 2.297 13.589 11.076 11.292 19.609l-18.189 67.574c44.097-17.694 82.113-47.288 110.071-84.832l-38.147-82.05c-3.726-8.013-.25-17.528 7.764-21.254 8.012-3.726 17.528-.249 21.254 7.764l29.5 63.451c21.635-40.42 32.557-86.959 29.714-135.838-1.25-.481 5.766 2.766-81.885-38.228zm-173.661 206.811c-84.576 0-153.478-68.833-153.478-153.478 0-84.577 68.835-153.478 153.478-153.478 84.577 0 153.478 68.835 153.478 153.478 0 85.011-69.165 153.478-153.478 153.478z" fill="#000000" data-original="#000000" class=""></path></g></svg>