<svg xmlns="http://www.w3.org/2000/svg" version="1.1" xmlns:xlink="http://www.w3.org/1999/xlink" xmlns:svgjs="http://svgjs.com/svgjs" width="512" height="512" x="0" y="0" viewBox="0 0 512 512" style="enable-background:new 0 0 512 512" xml:space="preserve" class=""><g>
<g xmlns="http://www.w3.org/2000/svg" id="surface1">
<path d="M 180 180 L 330 180 L 330 330 L 180 330 Z M 180 180 " style=" stroke:none;fill-rule:nonzero;fill-opacity:1;" fill="#000000" data-original="#000000" class=""></path>
<path d="M 420 180 L 420 150 L 512 150 L 512 0 L 105.785156 0 L 0 105.785156 L 0 210 L 90 210 L 90 240 L 0 240 L 0 270 L 90 270 L 90 300 L 0 300 L 0 330 L 90 330 L 90 360 L 0 360 L 0 512 L 512 512 L 512 300 L 420 300 L 420 270 L 512 270 L 512 240 L 420 240 L 420 210 L 512 210 L 512 180 Z M 120 300 L 120 270 L 150 270 L 150 240 L 120 240 L 120 210 L 150 210 L 150 180 L 120 180 L 120 150 L 150 150 L 150 120 L 180 120 L 180 150 L 210 150 L 210 120 L 240 120 L 240 150 L 270 150 L 270 120 L 300 120 L 300 150 L 330 150 L 330 120 L 360 120 L 360 150 L 390 150 L 390 180 L 360 180 L 360 210 L 390 210 L 390 240 L 360 240 L 360 270 L 390 270 L 390 300 L 360 300 L 360 330 L 390 330 L 390 360 L 360 360 L 360 390 L 330 390 L 330 360 L 300 360 L 300 390 L 270 390 L 270 360 L 240 360 L 240 390 L 210 390 L 210 360 L 180 360 L 180 390 L 150 390 L 150 360 L 120 360 L 120 330 L 150 330 L 150 300 Z M 120 90 L 120 60 L 150 60 L 150 90 Z M 180 90 L 180 60 L 210 60 L 210 90 Z M 240 90 L 240 60 L 270 60 L 270 90 Z M 300 90 L 300 60 L 330 60 L 330 90 Z M 390 420 L 390 450 L 360 450 L 360 420 Z M 330 420 L 330 450 L 300 450 L 300 420 Z M 270 420 L 270 450 L 240 450 L 240 420 Z M 210 420 L 210 450 L 180 450 L 180 420 Z M 150 420 L 150 450 L 120 450 L 120 420 Z M 390 90 L 360 90 L 360 60 L 390 60 Z M 450 90 L 420 90 L 420 60 L 450 60 Z M 60 420 L 90 420 L 90 450 L 60 450 Z M 450 420 L 450 450 L 420 450 L 420 420 Z M 450 420 " style=" stroke:none;fill-rule:nonzero;fill-opacity:1;" fill="#000000" data-original="#000000" class=""></path>
</g>
</g></svg>