<svg xmlns="http://www.w3.org/2000/svg" version="1.1" xmlns:xlink="http://www.w3.org/1999/xlink" xmlns:svgjs="http://svgjs.com/svgjs" width="512" height="512" x="0" y="0" viewBox="0 0 512 512" style="enable-background:new 0 0 512 512" xml:space="preserve" class=""><g transform="matrix(1,0,0,1,-80,0)"><g xmlns="http://www.w3.org/2000/svg"><g><g><path d="m286 0h-60c-8.284 0-15 6.716-15 15v15h90v-15c0-8.284-6.716-15-15-15z" fill="#000000" data-original="#000000" class=""></path></g><g><path d="m296 60h-80c-17.6 0-32.199 13.062-34.634 30h149.268c-2.435-16.938-17.034-30-34.634-30z" fill="#000000" data-original="#000000" class=""></path></g></g><g><path d="m311 260v150h120v-30h-75c-8.284 0-15-6.716-15-15s6.716-15 15-15h75v-30h-75c-8.284 0-15-6.716-15-15s6.716-15 15-15h75v-30z" fill="#000000" data-original="#000000" class=""></path><path d="m281 425v-180c0-8.284 6.716-15 15-15h135v-5c0-57.897-47.103-105-105-105h-140c-57.897 0-105 47.103-105 105v232c0 30.327 24.673 55 55 55h240c30.327 0 55-24.673 55-55v-17h-135c-8.284 0-15-6.716-15-15zm-65-80c0 16.568-13.431 30-30 30-16.569 0-30-13.432-30-30v-120c0-16.569 13.431-30 30-30 16.568 0 30 13.431 30 30z" fill="#000000" data-original="#000000" class=""></path></g></g></g></svg>